<?xml version="1.0" encoding="UTF-8"?>
<svg width="64" height="32" version="1.1" viewBox="0 0 64 32" xmlns="http://www.w3.org/2000/svg">
  <!-- Full Heart -->
  <g transform="translate(0,0)">
    <path d="M16,4 C14,2 11,2 9,4 C7,6 7,9 9,11 L16,18 L23,11 C25,9 25,6 23,4 C21,2 18,2 16,4 Z" fill="#ff0000" stroke="#800000" stroke-width="1"/>
  </g>
  <!-- Empty Heart -->
  <g transform="translate(32,0)">
    <path d="M16,4 C14,2 11,2 9,4 C7,6 7,9 9,11 L16,18 L23,11 C25,9 25,6 23,4 C21,2 18,2 16,4 Z" fill="none" stroke="#800000" stroke-width="1"/>
  </g>
</svg>